g Board_5
v 4.5 -0.5 -2.441406E-06
v 4.433019 -0.2499749 -2.423237E-06
v 4.250024 -0.06698057 -2.373596E-06
v 4.000049 1.026601E-08 -2.305786E-06
v 4.5 -0.5 -20
v 4.000049 1.159042E-08 -19.99996
v 4.250024 -0.06698057 -19.99998
v 4.433019 -0.2499749 -19.99999
v -4.5 -0.5 0
v -4.00005 -1.115939E-07 -1.356201E-07
v -4.250025 -0.0669807 -6.781005E-08
v -4.433019 -0.2499751 -1.816965E-08
v -4.499998 -0.5 -19.99935
v -4.433017 -0.249975 -19.99936
v -4.250023 -0.06698067 -19.99937
v -4.000048 -8.907646E-08 -19.99939
v -4.00005 -0.9999999 -1.356201E-07
v -4.433019 -0.7500249 -1.816965E-08
v -4.250025 -0.9330193 -6.781005E-08
v -4.000048 -0.9999999 -19.99939
v -4.250023 -0.9330193 -19.99937
v -4.433017 -0.7500249 -19.99936
v 4.000049 -1 -2.305786E-06
v 4.250024 -0.9330194 -2.373596E-06
v 4.433019 -0.750025 -2.423237E-06
v 4.433019 -0.750025 -19.99999
v 4.250024 -0.9330194 -19.99998
v 4.000049 -1 -19.99996
v 4.433019 -0.2499749 -2.423237E-06
v 4.5 -0.5 -2.441406E-06
v 4.433019 -0.750025 -2.423237E-06
v 4.250024 -0.06698057 -2.373596E-06
v 4.000049 1.026601E-08 -2.305786E-06
v -4.00005 -1.115939E-07 -1.356201E-07
v -4.250025 -0.0669807 -6.781005E-08
v -4.433019 -0.2499751 -1.816965E-08
v -4.433019 -0.7500249 -1.816965E-08
v -4.5 -0.5 0
v 4.433019 -0.750025 -19.99999
v 4.5 -0.5 -20
v 4.433019 -0.2499749 -19.99999
v 4.250024 -0.06698057 -19.99998
v 4.000049 1.159042E-08 -19.99996
v -4.000048 -8.907646E-08 -19.99939
v -4.250023 -0.06698067 -19.99937
v -4.433017 -0.7500249 -19.99936
v -4.433017 -0.249975 -19.99936
v -4.499998 -0.5 -19.99935
vt -0.027771 -0.02508545
vt -0.01852417 0.001793861
vt -0.009254456 0.02867126
vt 1.192093E-07 0.05554199
vt 1.027344 -0.02508545
vt 1 0.05554199
vt 1.008789 0.02867126
vt 1.018555 0.001793861
vt -0.027771 1.025391
vt -1.788139E-07 0.9443359
vt -0.009262085 0.9711914
vt -0.01852417 0.9980469
vt 1.027344 1.025391
vt 1.018555 0.9980469
vt 1.008789 0.9711914
vt 1 0.9443359
vt -0.05554199 0.9892578
vt -0.03704834 1.012695
vt -0.04629517 1.000977
vt 1.055664 0.9892578
vt 1.045898 1.000977
vt 1.037109 1.012695
vt -0.05554199 0.01094818
vt -0.04629517 -0.001063347
vt -0.03704834 -0.01307678
vt 1.037109 -0.01307678
vt 1.045898 -0.001062393
vt 1.055664 0.01094818
vt -0.01852417 0.001793861
vt -0.027771 -0.02508545
vt -0.03704834 -0.01307678
vt -0.009254456 0.02867126
vt 1.192093E-07 0.05554199
vt -1.788139E-07 0.9443359
vt -0.009262085 0.9711914
vt -0.01852417 0.9980469
vt -0.03704834 1.012695
vt -0.027771 1.025391
vt 1.037109 -0.01307678
vt 1.027344 -0.02508545
vt 1.018555 0.001793861
vt 1.008789 0.02867126
vt 1 0.05554199
vt 1 0.9443359
vt 1.008789 0.9711914
vt 1.037109 1.012695
vt 1.018555 0.9980469
vt 1.027344 1.025391
vn 1 0 0
vn 0.8662109 0.5 0
vn 0.5 0.8662109 0
vn 0.008117676 1 0
vn 1 0 0
vn 0.008117676 1 0
vn 0.5 0.8662109 0
vn 0.8662109 0.5 0
vn -1 0 0
vn -0.008117676 1 0
vn -0.5 0.8662109 0
vn -0.8662109 0.5 0
vn -1 0 0
vn -0.8662109 0.5 0
vn -0.5 0.8662109 0
vn -0.008117676 1 0
vn 2.980232E-07 0 1
vn -0.9658203 -0.2587891 0
vn 2.980232E-07 0 1
vn -7.212162E-05 0 -1
vn -7.212162E-05 0 -1
vn -0.9658203 -0.2587891 0
vn 2.980232E-07 0 1
vn 2.980232E-07 0 1
vn 0.9658203 -0.2587891 0
vn 0.9658203 -0.2587891 0
vn -7.212162E-05 0 -1
vn -7.212162E-05 0 -1
vn 2.980232E-07 0 1
vn 2.980232E-07 0 1
vn 2.980232E-07 0 1
vn 2.980232E-07 0 1
vn 2.980232E-07 0 1
vn 2.980232E-07 0 1
vn 2.980232E-07 0 1
vn 2.980232E-07 0 1
vn 2.980232E-07 0 1
vn 2.980232E-07 0 1
vn -7.212162E-05 0 -1
vn -7.212162E-05 0 -1
vn -7.212162E-05 0 -1
vn -7.212162E-05 0 -1
vn -7.212162E-05 0 -1
vn -7.212162E-05 0 -1
vn -7.212162E-05 0 -1
vn -7.212162E-05 0 -1
vn -7.212162E-05 0 -1
vn -7.212162E-05 0 -1
g Board_5_0
f 16/16/16 10/10/10 4/4/4
f 6/6/6 16/16/16 4/4/4
f 7/7/7 6/6/6 4/4/4
f 3/3/3 7/7/7 4/4/4
f 8/8/8 7/7/7 3/3/3
f 2/2/2 8/8/8 3/3/3
f 5/5/5 8/8/8 2/2/2
f 1/1/1 5/5/5 2/2/2
f 10/10/10 16/16/16 11/11/11
f 16/16/16 15/15/15 11/11/11
f 11/11/11 15/15/15 12/12/12
f 15/15/15 14/14/14 12/12/12
f 12/12/12 14/14/14 9/9/9
f 14/14/14 13/13/13 9/9/9
f 9/9/9 13/13/13 18/18/18
f 13/13/13 22/22/22 18/18/18
f 26/26/26 5/5/5 1/1/1
f 25/25/25 26/26/26 1/1/1
f 31/31/31 30/30/30 29/29/29
f 29/29/29 32/32/32 31/31/31
f 32/32/32 24/24/24 31/31/31
f 32/32/32 33/33/33 24/24/24
f 33/33/33 23/23/23 24/24/24
f 33/33/33 34/34/34 23/23/23
f 34/34/34 17/17/17 23/23/23
f 34/34/34 35/35/35 17/17/17
f 35/35/35 19/19/19 17/17/17
f 35/35/35 36/36/36 19/19/19
f 36/36/36 37/37/37 19/19/19
f 36/36/36 38/38/38 37/37/37
f 41/41/41 40/40/40 39/39/39
f 39/39/39 27/27/27 41/41/41
f 27/27/27 42/42/42 41/41/41
f 27/27/27 28/28/28 42/42/42
f 28/28/28 43/43/43 42/42/42
f 28/28/28 20/20/20 43/43/43
f 20/20/20 44/44/44 43/43/43
f 20/20/20 21/21/21 44/44/44
f 21/21/21 45/45/45 44/44/44
f 21/21/21 46/46/46 45/45/45
f 46/46/46 47/47/47 45/45/45
f 46/46/46 48/48/48 47/47/47
